<?xml version="1.0" encoding="UTF-8"?>
<!-- Generator: Adobe Illustrator 25.4.0, SVG Export Plug-In . SVG Version: 6.00 Build 0)  -->
<svg width="326.2" height="325.3" version="1.1" viewBox="0 0 326.2 325.3" xml:space="preserve" xmlns="http://www.w3.org/2000/svg">
<style type="text/css">
	.st0{fill:#046F60;}
	.st1{fill:#5D130D;}
	.st2{fill:#B64B2D;}
	.st3{fill:#016F60;}
	.st4{fill:#F28A13;}
</style>

<g transform="translate(-412.6,-55.7)">
	
	
	
	
	
	
	
	
	
	
	<path class="st1" d="m569.7 92.5c0-20.3-16.5-36.8-36.8-36.8s-36.8 16.5-36.8 36.8 16.5 36.8 36.8 36.8 36.8-16.5 36.8-36.8z"/>
	<path class="st2" d="m738.8 171.1c0-20.3-16.5-36.8-36.8-36.8s-36.8 16.5-36.8 36.8 16.5 36.8 36.8 36.8c20.4 0 36.8-16.5 36.8-36.8z"/>
	<path class="st3" d="m658.8 344.2c0-20.3-16.5-36.8-36.8-36.8s-36.8 16.5-36.8 36.8 16.5 36.8 36.8 36.8 36.8-16.5 36.8-36.8z"/>
	<path class="st4" d="m486.2 262.6c0-20.3-16.5-36.8-36.8-36.8s-36.8 16.5-36.8 36.8 16.5 36.8 36.8 36.8c20.4 0 36.8-16.5 36.8-36.8z"/>
	<path class="st2" d="m585.9 237.8c-6.8 6.8-10.4 15.5-10.9 24.3h-0.1c-0.5 8.8-4.1 17.5-10.9 24.2-6.7 6.7-15.4 10.3-24.2 10.9v0.1c-8.8 0.5-17.6 4.1-24.3 10.9-14.6 14.6-14.6 38.3 0 52.9s38.3 14.6 52.9 0c6.8-6.8 10.4-15.5 10.9-24.3h0.1c0.5-8.8 4.1-17.5 10.9-24.2 6.7-6.7 15.4-10.3 24.2-10.9v-0.1c8.8-0.5 17.6-4.1 24.3-10.9 14.6-14.6 14.6-38.3 0-52.9s-38.3-14.6-52.9 0z"/>
	<path class="st1" d="m719.4 227.6c-6.8-6.8-15.5-10.4-24.3-10.9v-0.1c-8.8-0.5-17.5-4.1-24.2-10.9-6.7-6.7-10.3-15.4-10.9-24.2h-0.1c-0.5-8.8-4.1-17.6-10.9-24.3-14.6-14.6-38.3-14.6-52.9 0s-14.6 38.3 0 52.9c6.8 6.8 15.5 10.4 24.3 10.9v0.1c8.8 0.5 17.5 4.1 24.2 10.9 6.7 6.7 10.3 15.4 10.9 24.2h0.1c0.5 8.8 4.1 17.6 10.9 24.3 14.6 14.6 38.3 14.6 52.9 0 14.7-14.6 14.7-38.3 0-52.9z"/>
	<path class="st4" d="m568.5 199.4c6.8-6.8 10.4-15.5 10.9-24.3h0.1c0.5-8.8 4.1-17.5 10.9-24.2 6.7-6.7 15.4-10.3 24.2-10.9v-0.1c8.8-0.5 17.5-4.1 24.3-10.9 14.6-14.6 14.6-38.3 0-52.9s-38.3-14.6-52.9 0c-6.8 6.8-10.4 15.5-10.9 24.3h-0.1c-0.5 8.8-4.1 17.5-10.9 24.2-6.7 6.7-15.4 10.3-24.2 10.9v0.1c-8.8 0.5-17.6 4.1-24.3 10.9-14.6 14.6-14.6 38.3 0 52.9s38.3 14.6 52.9 0z"/>
	<path class="st3" d="m434.5 210.2c6.8 6.8 15.5 10.4 24.3 10.9v0.1c8.8 0.5 17.5 4.1 24.2 10.9 6.7 6.7 10.3 15.4 10.9 24.2h0.1c0.5 8.8 4.1 17.6 10.9 24.3 14.6 14.6 38.3 14.6 52.9 0s14.6-38.3 0-52.9c-6.8-6.8-15.5-10.4-24.3-10.9v-0.1c-8.8-0.5-17.5-4.1-24.2-10.9-6.7-6.7-10.3-15.4-10.9-24.2h-0.1c-0.5-8.8-4.1-17.6-10.9-24.3-14.6-14.6-38.3-14.6-52.9 0s-14.6 38.3 0 52.9z"/>
</g>
</svg>
