<svg width="176" height="59" viewBox="0 0 176 59" fill="none" xmlns="http://www.w3.org/2000/svg">
<path d="M86.3509 28.4806C78.8922 28.4806 72.9846 22.8015 72.9846 15.7772C72.9846 8.75301 78.8922 3.14026 86.3509 3.14026C89.7442 3.14026 92.9545 4.38285 95.1477 6.20149L91.0163 11.4372C89.9392 10.3545 88.1541 9.55527 86.3509 9.55527C82.7626 9.55527 79.9693 12.2998 79.9693 15.8104C79.9693 19.321 82.7625 22.0656 86.3209 22.0656C88.2801 22.0656 89.9392 20.8532 90.7913 19.0345H86.2219L88.1901 13.8048H98.346V15.5269C98.346 22.9945 93.0415 28.4836 86.3479 28.4836L86.3509 28.4806Z" fill="#324BA0"/>
<path d="M101.004 3.90631H107.989V27.7145H101.004V3.90631V3.90631Z" fill="#324BA0"/>
<path d="M126.657 24.7166H118.112L117.065 27.7145H109.858L119.102 3.90631H125.931L135.193 27.7145H127.677L126.66 24.7166H126.657ZM124.911 19.5442L122.438 12.2365L119.897 19.5442H124.911V19.5442Z" fill="#324BA0"/>
<path d="M143.467 15.6476V27.7115H136.483V3.90631H143.116L152.069 15.8738V3.90631H159.024V27.7145H152.516L143.467 15.6506V15.6476Z" fill="#324BA0"/>
<path d="M165.105 10.2218H161.256V3.90332H175.9V10.2218H172.051V27.7115H165.105V10.2218Z" fill="#324BA0"/>
<path d="M83.6446 31.6685V49.1582H91.4634V55.4767H76.663V31.6685H83.6476H83.6446Z" fill="#324BA0"/>
<path d="M94.2357 31.6685H108.967V37.9237H101.217V40.8281H108.112V46.0638H101.217V49.2216H109.219V55.4767H94.2357V31.6685V31.6685Z" fill="#324BA0"/>
<path d="M127.773 52.4788H119.228L118.181 55.4767H110.974L120.218 31.6685H127.047L136.309 55.4767H128.793L127.776 52.4788H127.773ZM126.027 47.3064L123.554 39.9987L121.013 47.3064H126.027V47.3064Z" fill="#324BA0"/>
<path d="M145.214 48.9351V55.4767H138.229V31.6685H146.105C150.935 31.6685 156.579 32.7211 156.579 40.3154C156.579 46.9536 150.518 48.9351 146.075 48.9351H145.211H145.214ZM145.214 37.607V43.1896H146.483C148.55 43.1896 149.762 42.2969 149.762 40.3516C149.762 38.2735 148.52 37.607 146.483 37.607H145.214Z" fill="#324BA0"/>
<path d="M172.903 37.8302C171.604 37.0943 169.693 36.6449 167.947 36.6449C166.549 36.6449 165.753 37.1274 165.753 37.9207C165.753 38.7832 166.87 39.676 168.769 41.1417C172.705 44.3357 174.172 45.9643 174.172 48.9622C174.172 53.6581 169.633 55.8266 164.901 55.8597C162.642 55.8597 160.14 55.5099 158.676 54.8072V48.9954C160.392 49.8248 162.333 50.4008 164.427 50.4008C165.882 50.4008 166.969 49.7976 166.969 48.932C166.969 47.9729 165.534 46.9173 163.254 45.2284C159.288 42.2637 158.268 40.6019 158.268 37.8272C158.268 34.3799 161.244 31.189 167.347 31.189C169.093 31.189 171.283 31.3488 172.933 32.1149L172.903 37.8272V37.8302Z" fill="#324BA0"/>
<path d="M55.781 17.611C51.1996 7.90249 41.6766 0.863169 30.1405 0.658082C15.4331 0.395691 2.72992 11.5941 1.10976 26.291C0.170671 34.8051 2.98194 42.7583 8.13943 48.6213C8.39746 48.9139 8.67048 49.1823 8.93451 49.4628C9.21954 49.7614 9.50456 50.057 9.79859 50.3405C9.96361 50.4792 10.2006 50.5455 10.4076 50.4822C25.7871 45.8285 15.1151 28.4474 28.7844 19.5713C39.8825 12.3661 51.9046 20.5304 57.2841 26.4478C57.5962 26.7916 58.1602 26.5322 58.0972 26.0708C57.8242 24.0923 57.1731 20.5606 55.781 17.6079V17.611Z" fill="#324BA0"/>
<path d="M26.0392 15.6174C29.0814 15.6174 31.5477 13.1382 31.5477 10.08C31.5477 7.02182 29.0814 4.54266 26.0392 4.54266C22.9969 4.54266 20.5306 7.02182 20.5306 10.08C20.5306 13.1382 22.9969 15.6174 26.0392 15.6174Z" fill="#5ABE6E"/>
<path d="M14.542 23.9656C17.5843 23.9656 20.0506 21.4865 20.0506 18.4283C20.0506 15.3701 17.5843 12.8909 14.542 12.8909C11.4998 12.8909 9.03351 15.3701 9.03351 18.4283C9.03351 21.4865 11.4998 23.9656 14.542 23.9656Z" fill="#5ABE6E"/>
<path d="M11.0137 37.791C14.056 37.791 16.5222 35.3118 16.5222 32.2536C16.5222 29.1954 14.056 26.7162 11.0137 26.7162C7.97144 26.7162 5.50519 29.1954 5.50519 32.2536C5.50519 35.3118 7.97144 37.791 11.0137 37.791Z" fill="#5ABE6E"/>
<path d="M8.93448 49.4628C8.66746 49.1823 8.39743 48.9139 8.1394 48.6213C8.39443 48.9109 8.67046 49.1823 8.93448 49.4628Z" fill="#E80A89"/>
<path d="M31.2717 31.6534L34.0079 40.3847L36.3721 42.5019L45.046 38.3459L31.3077 26.0406C31.0736 25.8235 30.7376 25.736 30.4106 25.8386C30.0325 25.9592 29.7865 26.3 29.7715 26.674L29.1505 36.0356L30.8786 37.5858L31.2717 31.6564V31.6534Z" fill="#324BA0"/>
<path d="M29.9365 51.7791L28.4244 46.9535L28.2474 46.3925L25.2411 47.8342L24.575 57.8834C26.2192 58.179 27.9083 58.3479 29.6365 58.3479C30.4196 58.3479 31.1936 58.3087 31.9617 58.2484L29.9365 51.7821V51.7791Z" fill="#5ABE6E"/>
<path d="M14.179 53.1363C13.921 53.26 13.894 53.6249 14.134 53.7817C16.7502 55.4737 19.6635 56.7344 22.7688 57.5004L23.3509 48.742L14.179 53.1363V53.1363Z" fill="#5ABE6E"/>
<path d="M57.6322 32.3139L54.9379 33.6048C50.8395 20.9587 36.9722 20.814 36.7982 20.814C36.2941 20.814 35.8861 21.2272 35.8861 21.7338C35.8861 22.2405 36.2941 22.6507 36.8012 22.6507C37.3322 22.6507 49.6814 22.7985 53.2728 34.401L52.8557 34.6C49.1084 28.3992 42.2647 27.3647 39.3784 27.2169C38.8654 27.1898 38.4454 27.5818 38.4184 28.0885C38.3913 28.5952 38.7814 29.0265 39.2854 29.0536C41.8447 29.1863 47.8723 30.0821 51.1996 35.3963L45.043 38.3459L36.3692 42.5019L36.3752 42.508L43.9809 49.3181L44.6049 49.879L47.2602 52.2587C53.2098 47.5929 57.2872 40.629 58.1572 32.6879C58.1872 32.4014 57.8872 32.1903 57.6292 32.3139H57.6322Z" fill="#5ABE6E"/>
<path d="M44.6079 49.879L43.9839 49.318L36.3782 42.5079L36.3722 42.5019L34.0079 40.3847L30.8786 37.5828L29.1505 36.0326L25.8801 33.1041C25.6461 32.8869 25.3071 32.7995 24.9861 32.902C24.608 33.0227 24.362 33.3635 24.347 33.7375L23.3539 48.736L22.7719 57.4944C23.3659 57.6422 23.969 57.7658 24.578 57.8774L25.2441 47.8281L25.8471 38.7138L28.2504 46.3865L28.4274 46.9475L29.9395 51.7731L31.9647 58.2393C37.7103 57.7749 42.9728 55.6124 47.2632 52.2496L44.6079 49.87V49.879Z" fill="#324BA0"/>
</svg>
