<svg id="Layer_1" data-name="Layer 1" xmlns="http://www.w3.org/2000/svg" viewBox="0 0 94.63 73.81"><defs><linearGradient id="logo-inline__linear-gradient___1d1nX" x1="1.26" y1="38.26" x2="69.36" y2="38.26" gradientUnits="userSpaceOnUse"><stop offset=".04" stop-color="#00bebf"></stop><stop offset=".52" stop-color="#36e6ae"></stop></linearGradient><style>.logo-inline__cls-2___LQOoL{fill:#27076e}</style></defs><path d="M67 42.12C59.87 61.36 56 78 34.72 74.78S-1.37 52.62 1.65 32.38s22.65-28.87 44-30.9C68.9-.73 72.78 26.29 67 42.12z" transform="translate(-1.26 -1.35)" fill="url(#logo-inline__linear-gradient___1d1nX)"></path><path class="logo-inline__cls-2___LQOoL" d="M42.39 49.93a1.53 1.53 0 003.06 0v-7h3.09V50a4.63 4.63 0 01-9.25 0v-7.1h3.1zM51.43 42.87h9.24v3.06h-3.11v8.67h-3.08v-8.67h-3zM66.66 49.93a1.53 1.53 0 103.06 0v-7h3.1V50a4.63 4.63 0 01-9.25 0v-7.1h3.09zM82.75 54.6l-1.81-3.11H79v3.11h-3V42.88h4.94a4.3 4.3 0 012.93 7.47l2.43 4.25zM79 48.84h1.91a1.68 1.68 0 100-3.36H79z" transform="translate(-1.26 -1.35)"></path><path class="logo-inline__cls-2___LQOoL" d="M28.06 41.53v2.53h7.21v-2.53h-7.21zM32.4 45.97h-4.34v7.28h3.08v-4.67h3.77v-2.61H32.4zM87.34 45.98v2.6h7.29v-2.6h-7.29zM87.34 41.53v2.55h7.29v-2.55h-7.29zM90.42 50.73h-3.08v2.52h7.29v-2.52h-4.21z"></path><path class="logo-inline__cls-2___LQOoL" d="M29.32 23.08h4.94a4.31 4.31 0 01.06 8.61H32.4v3.11h-3.08zm3.08 6h1.91A1.66 1.66 0 0036 27.36a1.68 1.68 0 00-1.68-1.69H32.4zM47.82 34.8L46 31.69h-1.9v3.11H41V23.08h5a4.3 4.3 0 012.92 7.47l2.49 4.25zM44.1 29H46a1.66 1.66 0 001.68-1.67A1.68 1.68 0 0046 25.67h-1.9zM59 23.08A5.86 5.86 0 1153.13 29 5.87 5.87 0 0159 23.08zm0 3.06a2.8 2.8 0 102.8 2.8 2.79 2.79 0 00-2.8-2.8z" transform="translate(-1.26 -1.35)"></path></svg>